<?xml version="1.0" standalone="no"?>
<!DOCTYPE svg PUBLIC "-//W3C//DTD SVG 1.1//EN" "http://www.w3.org/Graphics/SVG/1.1/DTD/svg11.dtd" >
<svg xmlns="http://www.w3.org/2000/svg">
<metadata></metadata>
<defs>
<font id="sra_sans_2.0book" horiz-adv-x="540" >
<font-face units-per-em="1000" ascent="730" descent="-270" />
<missing-glyph horiz-adv-x="300" />
<glyph unicode="th&#x7c;" horiz-adv-x="861" d="M92 638l79 8v-133h113v-62h-113v-313q0 -18 2 -26l215 236v338h79v-251l315 346h66l-237 -260q5 1 16 1q68 0 115 -46t47 -129v-347h-78v333q0 64 -28.5 95t-73.5 31q-50 0 -96 -46t-46 -129v-284h-79v276l-191 -209q17 -13 51 -13l63 5v-63q-61 -6 -77 -6q-53 0 -86 22 l-74 -81h-67l107 117q-22 40 -22 106v297h-90v62h90v125z" />
<glyph unicode="e&#x7c;" d="M271 523q109 0 165.5 -75t56.5 -181v-19h-369q0 -86 31 -131q45 -61 121 -61q98 0 135 98l74 -15q-18 -59 -75.5 -104t-140.5 -45q-108 0 -170 74.5t-62 190.5q0 111 63.5 189.5t170.5 78.5zM272 463q-30 0 -55 -11.5t-41 -29t-27 -39.5t-15.5 -41.5t-4.5 -35.5h278 q0 68 -35.5 112.5t-99.5 44.5zM115 663h315v-59h-315v59z" />
<glyph unicode="i&#x7c;" horiz-adv-x="240" d="M81 509h78v-509h-78v509zM24 663h189v-59h-189v59z" />
<glyph unicode="o&#x7c;&#x7c;" d="M274 523q108 0 165.5 -79t57.5 -186q0 -111 -61 -189.5t-175 -78.5q-74 0 -125 41t-72.5 100t-21.5 129q0 110 61.5 186.5t170.5 76.5zM269 459q-57 0 -98.5 -47t-41.5 -153q0 -100 37 -151.5t103 -51.5q62 0 102 50t40 153q0 50 -10.5 88t-26 58.5t-36.5 33.5t-37 16.5 t-32 3.5zM276 696q22 0 37 -14.5t15 -36.5q0 -21 -15 -35.5t-37 -14.5t-37 14.5t-15 35.5q0 22 15 36.5t37 14.5z" />
<glyph unicode="u&#x7c;" d="M69 509h79v-323q0 -64 28 -95.5t71 -31.5q58 0 100.5 46.5t42.5 128.5v275h78v-509h-71v102h-2q-16 -44 -58.5 -78t-97.5 -34q-74 0 -122 48.5t-48 142.5v328zM108 663h315v-59h-315v59z" />
<glyph unicode="&#x25;&#x30;" horiz-adv-x="1040" d="M166 696q71 0 107.5 -53.5t36.5 -126.5q0 -74 -37.5 -125t-104.5 -51t-105 51.5t-38 125.5q0 75 36 127t105 52zM165 644q-40 0 -59.5 -35t-19.5 -92t20 -91.5t61 -34.5q43 0 62.5 34.5t19.5 89.5q0 129 -84 129zM512 347q71 0 107.5 -53.5t36.5 -126.5 q0 -74 -37.5 -125.5t-104.5 -51.5t-105 52t-38 126q0 75 36 127t105 52zM511 295q-79 0 -79 -127q0 -126 81 -126q43 0 62.5 34.5t19.5 89.5t-19.5 92t-64.5 37zM871 347q71 0 108 -53.5t37 -126.5q0 -74 -38 -125.5t-105 -51.5t-105 52.5t-38 125.5q0 75 36.5 127t104.5 52 zM871 295q-41 0 -60.5 -34.5t-19.5 -92.5q0 -57 20 -91.5t62 -34.5q43 0 62.5 34.5t19.5 89.5t-19.5 92t-64.5 37zM510 686h74l-416 -686h-74z" />
<glyph unicode="o&#x7c;" d="M274 523q108 0 165.5 -79t57.5 -186q0 -111 -61 -189.5t-175 -78.5q-74 0 -125 41t-72.5 100t-21.5 129q0 110 61.5 186.5t170.5 76.5zM269 459q-57 0 -98.5 -47t-41.5 -153q0 -100 37 -151.5t103 -51.5q62 0 102 50t40 153q0 50 -10.5 88t-26 58.5t-36.5 33.5t-37 16.5 t-32 3.5zM117 663h315v-59h-315v59z" />
<glyph unicode="oo&#x7c;" horiz-adv-x="1080" d="M815 523q108 0 165.5 -79t57.5 -186q0 -111 -61 -189.5t-175 -78.5q-74 0 -125 41t-72.5 100t-21.5 129q0 110 61.5 186.5t170.5 76.5zM810 459q-57 0 -98.5 -47t-41.5 -153q0 -100 37 -151.5t103 -51.5q62 0 102 50t40 153q0 50 -10.5 88t-26 58.5t-36.5 33.5t-37 16.5 t-32 3.5zM274 523q108 0 165.5 -79t57.5 -186q0 -111 -61 -189.5t-175 -78.5q-74 0 -125 41t-72.5 100t-21.5 129q0 110 61.5 186.5t170.5 76.5zM269 459q-57 0 -98.5 -47t-41.5 -153q0 -100 37 -151.5t103 -51.5q62 0 102 50t40 153q0 50 -10.5 88t-26 58.5t-36.5 33.5 t-37 16.5t-32 3.5zM132 663h819v-59h-819v59z" />
<glyph unicode="a&#x7c;" d="M272 523q41 0 72.5 -6.5t62 -24.5t47 -55.5t16.5 -93.5v-222q0 -43 3 -73t5 -39l3 -9h-79l-8 96q-49 -106 -178 -106q-84 0 -130.5 44.5t-46.5 110.5q0 45 25.5 83t69.5 58q67 29 172 29h88v30q0 39 -12.5 64t-35 35.5t-40 13.5t-41.5 3q-119 0 -139 -90l-74 12 q6 40 29 69t56.5 43.5t66.5 21t68 6.5zM331 256q-208 0 -208 -115q0 -39 28.5 -64t81.5 -25q70 0 115.5 50.5t45.5 121.5v32h-63zM113 663h315v-59h-315v59z" />
<glyph unicode=" "  horiz-adv-x="300" />
<glyph unicode="&#x09;" horiz-adv-x="300" />
<glyph unicode="&#xa0;" horiz-adv-x="300" />
<glyph unicode="!" horiz-adv-x="300" d="M87 686h118l-39 -515h-43zM94 107h103v-107h-103v107z" />
<glyph unicode="&#x22;" horiz-adv-x="460" d="M104 686h93v-114l-27 -132h-40l-26 132v114zM261 686h93v-114l-27 -132h-40l-26 132v114z" />
<glyph unicode="#" horiz-adv-x="600" d="M232 686h68l-37 -195h134l35 195h69l-35 -195h98v-63h-113l-27 -157h107v-63h-123l-38 -208h-66l37 208h-132l-41 -208h-65l37 208h-103v63h118l27 157h-108v63h122zM250 428l-27 -157h133l27 157h-133z" />
<glyph unicode="$" horiz-adv-x="600" d="M275 757h61v-83q72 -4 122 -39.5t70 -91.5l-67 -23q-27 81 -125 89v-215q98 -24 134 -49q71 -51 71 -140q0 -39 -18.5 -77.5t-50.5 -62.5q-51 -37 -136 -43v-97h-61v97q-73 6 -132.5 43t-83.5 114l68 26q18 -51 57 -82t91 -32v233q-81 17 -122 45q-67 47 -67 127 t54 124.5t135 53.5v83zM275 403v207q-57 -6 -86.5 -34.5t-29.5 -67.5q0 -86 116 -105zM336 91q52 0 90 29t38 80q0 90 -128 111v-220z" />
<glyph unicode="%" horiz-adv-x="700" d="M166 696q71 0 108 -53.5t37 -126.5q0 -74 -38 -125t-105 -51t-105 51.5t-38 125.5q0 75 36 127t105 52zM166 644q-41 0 -60.5 -34.5t-19.5 -92.5q0 -57 20 -91.5t62 -34.5t62 35t20 89q0 55 -19.5 92t-64.5 37zM529 347q71 0 108 -53.5t37 -126.5q0 -74 -38 -125.5 t-105 -51.5t-105 52t-38 126q0 75 36 127t105 52zM529 295q-41 0 -60.5 -34.5t-19.5 -92.5q0 -57 20 -91.5t62 -34.5t62 35t20 89q0 55 -19.5 92t-64.5 37zM520 686h74l-416 -686h-74z" />
<glyph unicode="&#x26;" horiz-adv-x="680" d="M218 400q-64 94 -64 153q0 62 43.5 102.5t109.5 40.5q74 0 117 -42t43 -102q0 -112 -146 -176l145 -218q71 82 93 216l75 -15q-33 -151 -128 -254q18 -19 34.5 -27.5t43.5 -8.5l61 5v-70q-38 -8 -74 -8q-37 0 -59 13.5t-56 49.5q-81 -69 -183 -69q-105 0 -168.5 59.5 t-63.5 143.5q0 138 177 207zM286 426q58 26 86.5 53t28.5 68q0 35 -26 60t-66 25q-35 0 -59 -22.5t-24 -55.5q0 -38 60 -128zM251 349q-66 -29 -95 -64t-29 -86q0 -66 41 -104.5t115 -38.5q77 0 134 54z" />
<glyph unicode="'" horiz-adv-x="300" d="M104 572v114h93v-114l-26 -132h-40z" />
<glyph unicode="(" horiz-adv-x="300" d="M199 686h52q-58 -84 -92 -197t-34 -225q0 -237 126 -436h-52q-66 82 -107.5 193.5t-41.5 236.5q0 121 43 234t106 194z" />
<glyph unicode=")" horiz-adv-x="300" d="M48 686h53q63 -81 105.5 -194t42.5 -234q0 -125 -41 -237t-107 -194h-53q127 200 127 436q0 113 -34.5 226.5t-92.5 196.5z" />
<glyph unicode="*" horiz-adv-x="600" d="M273 686h60l-8 -171l146 92l28 -52l-155 -79l155 -80l-28 -51l-146 92l8 -171h-60l8 171l-147 -92l-31 51l152 80l-152 80l31 50l147 -91z" />
<glyph unicode="+" horiz-adv-x="600" d="M267 546h65v-225h226v-66h-226v-225h-65v225h-226v66h226v225z" />
<glyph unicode="," horiz-adv-x="300" d="M104 115h109v-103l-75 -141h-42l60 129h-52v115z" />
<glyph unicode="-" horiz-adv-x="220" d="M0 288h213v-61h-213v61z" />
<glyph unicode="." horiz-adv-x="300" d="M98 113h111v-113h-111v113z" />
<glyph unicode="/" horiz-adv-x="520" d="M388 686h69l-415 -859h-67z" />
<glyph unicode="0" horiz-adv-x="600" d="M295 696q57 0 103.5 -22t76 -57.5t49 -83t28 -95.5t8.5 -97q0 -64 -15.5 -125t-45.5 -112.5t-81 -82.5t-115 -31q-69 0 -121.5 33t-82 86.5t-44 112.5t-14.5 120q0 95 27 173.5t86 129.5t141 51zM295 631q-48 0 -82.5 -27.5t-52 -72t-25 -89.5t-7.5 -93q0 -53 8 -100.5 t26.5 -93t54.5 -72.5t86 -27q84 0 127 76t43 198q0 132 -43.5 216.5t-134.5 84.5z" />
<glyph unicode="1" horiz-adv-x="600" d="M301 686h62v-622h191v-64h-479v64h205v518q-90 -94 -189 -145v85q137 68 210 164z" />
<glyph unicode="2" horiz-adv-x="600" d="M130 470l-81 25q23 102 92 151.5t155 49.5q99 0 169 -57.5t70 -147.5q0 -131 -156 -251l-220 -168h377v-72h-487v71l268 210q132 104 132 210q0 56 -45.5 96t-110.5 40q-67 0 -114 -47.5t-49 -109.5z" />
<glyph unicode="3" horiz-adv-x="600" d="M56 540q26 70 90.5 113t152.5 43q96 0 160.5 -50t64.5 -132q0 -55 -36 -99t-95 -53v-2q65 -9 111.5 -53.5t46.5 -113.5q0 -82 -67.5 -142.5t-191.5 -60.5q-104 0 -171 48t-90 119l80 27q32 -124 178 -124q93 0 133.5 39.5t40.5 93.5t-47 92t-146 38h-70v67h83 q86 0 120.5 37.5t34.5 78.5q0 57 -41.5 90t-103.5 33q-57 0 -100.5 -31t-59.5 -80z" />
<glyph unicode="4" horiz-adv-x="600" d="M348 686h107v-459h111v-65h-111v-162h-82v162h-339v56zM373 227v392l-250 -392h250z" />
<glyph unicode="5" horiz-adv-x="600" d="M102 686h404l-7 -74h-336l-14 -220q76 73 164 73q100 0 169 -66.5t69 -166.5q0 -110 -75 -176t-188 -66q-86 0 -152.5 46.5t-86.5 115.5l74 25q13 -43 55 -81t112 -38q85 0 131.5 48t46.5 128q0 68 -44 115t-117 47q-50 0 -92.5 -26t-68.5 -67l-67 14z" />
<glyph unicode="6" horiz-adv-x="600" d="M420 696l19 -67q-127 -8 -209 -72t-90 -185h2q67 76 190 76q95 0 159 -63t64 -155q0 -98 -70 -169t-173 -71q-123 0 -194.5 84.5t-71.5 247.5q0 156 97.5 260.5t276.5 113.5zM318 381q-69 0 -122.5 -40t-53.5 -93q0 -76 44.5 -132t123.5 -56q74 0 119 49t45 118 q0 60 -43 107t-113 47z" />
<glyph unicode="7" horiz-adv-x="600" d="M79 686h452v-52q-44 -55 -78 -107t-76 -134t-66 -183.5t-24 -209.5h-87q0 173 68.5 331.5t173.5 279.5h-372z" />
<glyph unicode="8" horiz-adv-x="600" d="M306 696q104 0 167 -48t63 -122q0 -113 -134 -158q38 -18 63.5 -33t50 -37t36.5 -50.5t12 -63.5q0 -90 -73 -142t-187 -52q-131 0 -200 58t-69 128q0 60 39 103.5t123 76.5q-60 22 -94 66t-34 97q0 86 71 131.5t166 45.5zM308 632q-61 0 -107 -28t-46 -77 q0 -39 35.5 -74.5t111.5 -54.5q82 20 120.5 50.5t38.5 75.5q0 47 -37.5 77.5t-115.5 30.5zM293 320q-88 -20 -131 -58t-43 -84q0 -59 51.5 -91.5t132.5 -32.5q69 0 123 29t54 89q0 101 -187 148z" />
<glyph unicode="9" horiz-adv-x="600" d="M41 435q0 115 89.5 188t232.5 73q99 0 183 -33v-663h-82v321h-4q-85 -80 -215 -80q-89 0 -146.5 54t-57.5 140zM349 631q-91 0 -154.5 -54t-63.5 -134q0 -55 36.5 -92.5t88.5 -37.5q93 0 151.5 47.5t58.5 97.5v149q-35 24 -117 24z" />
<glyph unicode=":" horiz-adv-x="300" d="M98 113h111v-113h-111v113zM98 509h111v-113h-111v113z" />
<glyph unicode=";" horiz-adv-x="300" d="M103 509h109v-113h-109v113zM103 115v-115h52l-60 -129h43l74 141v103h-109z" />
<glyph unicode="&#x3c;" horiz-adv-x="599" d="M56 305l489 208v-62l-395 -163l395 -162v-62l-489 207v34z" />
<glyph unicode="=" horiz-adv-x="600" d="M42 419h517v-65h-517v65zM42 225h517v-65h-517v65z" />
<glyph unicode="&#x3e;" horiz-adv-x="599" d="M56 512l489 -207v-34l-489 -207v62l394 162l-394 162v62z" />
<glyph unicode="?" d="M209 98h103v-98h-103v98zM278 696q97 0 161 -52t64 -140q0 -115 -115 -175l-40 -21q-34 -19 -44.5 -35t-10.5 -51v-52h-72v55q0 54 15 82.5t50 48.5l52 30q77 44 77 116q0 55 -40 88.5t-102 33.5q-53 0 -96.5 -33.5t-57.5 -113.5l-75 17q14 90 73.5 146t160.5 56z" />
<glyph unicode="@" horiz-adv-x="800" d="M428 696q81 0 157 -34.5t127.5 -102.5t51.5 -153q0 -110 -66 -183t-146 -73q-48 0 -70.5 18.5t-22.5 41.5q-51 -58 -116 -58q-52 0 -89 44.5t-37 100.5q0 85 62 156t142 71q42 0 66.5 -21.5t32.5 -50.5l17 53h67l-68 -207q-14 -45 -14 -55q0 -15 9.5 -26t28.5 -11 q52 0 97.5 63t45.5 140q0 87 -82.5 157.5t-207.5 70.5q-80 0 -153 -48t-115 -119t-42 -141q0 -113 83.5 -195.5t220.5 -82.5q72 0 147 27l23 -54q-100 -34 -187 -34q-62 0 -123.5 21.5t-114 61t-85 102.5t-32.5 139q0 158 117.5 270t275.5 112zM421 469q-56 0 -93.5 -56 t-37.5 -111q0 -38 21.5 -68t58.5 -30q38 0 67 38.5t41.5 81.5t12.5 75q0 30 -17.5 50t-52.5 20z" />
<glyph unicode="A" horiz-adv-x="560" d="M229 686h99l223 -686h-88l-69 200h-253l-62 -200h-72zM164 265h211l-105 329z" />
<glyph unicode="B" horiz-adv-x="620" d="M81 686h288q80 0 132 -47.5t52 -118.5q0 -55 -29 -97.5t-92 -57.5v-2q63 -13 102.5 -60t39.5 -113q0 -82 -53 -136t-161 -54h-279v686zM167 618v-226h164q71 0 104 34t33 85q0 48 -33 77.5t-97 29.5h-171zM167 327v-254h175q74 0 110 33t36 88q0 52 -35.5 92.5 t-104.5 40.5h-181z" />
<glyph unicode="C" horiz-adv-x="620" d="M328 696q101 0 163.5 -61t83.5 -158l-81 -15q-5 20 -10 34.5t-19 41t-30.5 43t-45.5 30t-64 13.5q-65 0 -109 -42.5t-62 -103.5t-18 -134q0 -132 52.5 -207t132.5 -75q134 0 176 169l78 -17q-22 -100 -84 -162t-169 -62q-133 0 -206.5 105t-73.5 256q0 149 75 247t211 98 z" />
<glyph unicode="D" horiz-adv-x="660" d="M85 686h235q63 0 113 -20q90 -37 138.5 -124.5t48.5 -196.5q0 -113 -51 -206t-143 -125q-40 -14 -92 -14h-249v686zM171 615v-542h131q76 0 121 27q53 32 82 100.5t29 145.5q0 76 -29.5 145t-89.5 100q-45 24 -110 24h-134z" />
<glyph unicode="E" horiz-adv-x="560" d="M85 686h434v-74h-348v-218h276v-69h-276v-250h358v-75h-444v686z" />
<glyph unicode="F" horiz-adv-x="480" d="M83 686h420v-74h-334v-218h277v-69h-277v-325h-86v686z" />
<glyph unicode="G" horiz-adv-x="660" d="M345 696q104 0 166.5 -56.5t82.5 -140.5l-81 -20q-15 64 -59 104.5t-114 40.5q-54 0 -94.5 -25.5t-62.5 -68t-32.5 -90t-10.5 -100.5q0 -133 56 -206.5t145 -73.5q81 0 126.5 51t45.5 135v29h-172v71h260v-352h-53l-23 86q-63 -90 -192 -90q-73 0 -129.5 31t-89.5 82.5 t-49.5 111t-16.5 121.5q0 99 33.5 179.5t102 130.5t161.5 50z" />
<glyph unicode="H" horiz-adv-x="660" d="M85 686h86v-285h319v285h86v-686h-86v327h-319v-327h-86v686z" />
<glyph unicode="I" horiz-adv-x="260" d="M87 686h86v-686h-86v686z" />
<glyph unicode="J" horiz-adv-x="400" d="M237 686h85v-487q0 -59 -17.5 -101t-48 -65t-65.5 -33t-77 -10q-23 0 -47.5 3.5t-37.5 7.5l-13 4v70q25 -10 89 -10q70 0 101 28.5t31 102.5v490z" />
<glyph unicode="K" horiz-adv-x="620" d="M87 686h86v-398l308 398h94l-185 -240l238 -446h-95l-203 378l-157 -195v-183h-86v686z" />
<glyph unicode="L" horiz-adv-x="500" d="M85 686h86v-610h319v-76h-405v686z" />
<glyph unicode="M" horiz-adv-x="820" d="M79 686h128l208 -548l201 548h127v-686h-86v599h-5l-217 -599h-58l-222 599h-4v-599h-72v686z" />
<glyph unicode="N" horiz-adv-x="660" d="M77 686h108l326 -558v558h72v-686h-84l-350 598v-598h-72v686z" />
<glyph unicode="O" horiz-adv-x="660" d="M331 696q128 0 204.5 -99.5t76.5 -244.5q0 -68 -17 -130.5t-50 -115.5t-88.5 -84.5t-126.5 -31.5q-134 0 -208 101t-74 247q0 154 77 256t206 102zM333 624q-92 0 -143.5 -78.5t-51.5 -207.5q0 -116 50 -197t143 -81q91 0 141 81t50 208t-53 201t-136 74z" />
<glyph unicode="P" horiz-adv-x="560" d="M64 686h239q93 0 147 -39q35 -25 56.5 -72.5t21.5 -93.5q0 -82 -55 -142t-155 -60h-169v-279h-85v686zM149 616v-266h161q61 0 96.5 37.5t35.5 93.5q0 36 -16.5 69t-48.5 51q-29 15 -81 15h-147z" />
<glyph unicode="Q" horiz-adv-x="660" d="M331 696q128 0 204.5 -99.5t76.5 -244.5q0 -122 -50.5 -219t-139.5 -129q22 -35 65 -49t115 -15v-70q-201 0 -260 120h-12q-132 0 -207 101.5t-75 246.5q0 154 77 256t206 102zM333 625q-93 0 -144 -78t-51 -209q0 -116 47.5 -195t132.5 -83q-6 33 -6 74h83q0 -37 4 -60 q58 25 91 99t33 176q0 127 -53.5 201.5t-136.5 74.5z" />
<glyph unicode="R" horiz-adv-x="620" d="M81 686h264q64 0 107 -19q56 -24 85 -72t29 -101q0 -62 -34 -110t-93 -65l134 -319h-90l-127 298h-189v-298h-86v686zM167 612v-245h177q65 0 100.5 36t35.5 93q0 74 -65 104q-29 12 -69 12h-179z" />
<glyph unicode="S" horiz-adv-x="620" d="M309 696q94 0 157 -46.5t87 -121.5l-77 -21q-12 53 -60 87t-108 34q-62 0 -104.5 -31.5t-42.5 -77.5q0 -40 22 -64.5t82 -39.5l146 -35q87 -21 126 -72t39 -112q0 -38 -13.5 -72.5t-42 -65.5t-80 -49.5t-120.5 -18.5q-110 0 -176.5 50t-100.5 146l77 16q44 -138 202 -138 q89 0 127.5 37t38.5 85q0 83 -115 111l-151 37q-67 16 -106 63.5t-39 111.5q0 88 67.5 137.5t164.5 49.5z" />
<glyph unicode="T" horiz-adv-x="500" d="M13 686h476v-74h-196v-612h-85v612h-195v74z" />
<glyph unicode="U" horiz-adv-x="640" d="M85 686h86v-453q0 -88 37 -127t120 -39q156 0 156 162v457h73v-456q0 -117 -64 -178.5t-172 -61.5q-115 0 -175.5 59.5t-60.5 178.5v458z" />
<glyph unicode="V" horiz-adv-x="560" d="M7 686h91l190 -565l189 565h76l-232 -686h-82z" />
<glyph unicode="W" horiz-adv-x="820" d="M9 686h89l136 -556h2l145 556h69l156 -556h2l127 556h75l-165 -686h-86l-148 532l-141 -532h-87z" />
<glyph unicode="X" d="M29 686h97l151 -254l152 254h80l-192 -314l219 -372h-98l-172 292l-180 -292h-81l221 355z" />
<glyph unicode="Y" horiz-adv-x="560" d="M7 686h100l182 -316l184 316h78l-229 -397v-289h-86v289z" />
<glyph unicode="Z" d="M46 686h456v-58l-377 -554h387v-74h-483v74l372 541h-355v71z" />
<glyph unicode="[" horiz-adv-x="300" d="M65 686h178v-51h-109v-754h109v-53h-178v858z" />
<glyph unicode="\" horiz-adv-x="520" d="M58 686h68l413 -859h-67z" />
<glyph unicode="]" horiz-adv-x="300" d="M56 686h178v-859h-178v53h109v754h-109v52z" />
<glyph unicode="^" horiz-adv-x="600" d="M277 686h46l174 -428h-61l-136 332l-136 -332h-60z" />
<glyph unicode="_" horiz-adv-x="500" d="M0 -75h500v-50h-500v50z" />
<glyph unicode="`" horiz-adv-x="380" d="M103 716l200 -119l-20 -40l-214 94z" />
<glyph unicode="a" d="M272 523q41 0 72.5 -6.5t62 -24.5t47 -55.5t16.5 -93.5v-222q0 -43 3 -73t5 -39l3 -9h-79l-8 96q-49 -106 -178 -106q-84 0 -130.5 44.5t-46.5 110.5q0 45 25.5 83t69.5 58q67 29 172 29h88v30q0 39 -12.5 64t-35 35.5t-40 13.5t-41.5 3q-119 0 -139 -90l-74 12 q6 40 29 69t56.5 43.5t66.5 21t68 6.5zM331 256q-208 0 -208 -115q0 -39 28.5 -64t81.5 -25q70 0 115.5 50.5t45.5 121.5v32h-63z" />
<glyph unicode="b" d="M60 686h78v-260h3q27 45 61 71t89 26q82 0 143 -67t61 -194q0 -117 -57.5 -194.5t-168.5 -77.5q-83 0 -130 21.5t-79 59.5v615zM277 460q-55 0 -97 -48.5t-42 -123.5v-119q0 -55 32 -86.5t95 -31.5q73 0 109.5 54t36.5 144q0 92 -34.5 151.5t-99.5 59.5z" />
<glyph unicode="c" horiz-adv-x="480" d="M251 523q84 0 134 -50t61 -126l-72 -13q-7 57 -39 90.5t-82 33.5q-69 0 -102.5 -58t-33.5 -138q0 -85 31.5 -144.5t98.5 -59.5q104 0 127 124l72 -13q-2 -15 -7.5 -33.5t-19.5 -45.5t-34.5 -48t-55.5 -36.5t-79 -15.5q-102 0 -158.5 75t-56.5 192q0 114 58 190t158 76z " />
<glyph unicode="d" d="M396 686h78v-563q0 -22 3 -52.5t5 -50.5l3 -20h-71q-9 46 -11 91h-3q-18 -40 -57 -70.5t-101 -30.5q-93 0 -148 76t-55 190q0 111 55 189t154 78q87 0 148 -82v245zM256 461q-54 0 -93.5 -50.5t-39.5 -146.5q0 -53 10 -96.5t41 -77.5t79 -34q58 0 100.5 45.5t42.5 107.5 v105q0 75 -44.5 111t-95.5 36z" />
<glyph unicode="e" d="M271 523q109 0 165.5 -75t56.5 -181v-19h-369q0 -86 31 -131q45 -61 121 -61q98 0 135 98l74 -15q-18 -59 -75.5 -104t-140.5 -45q-108 0 -170 74.5t-62 190.5q0 111 63.5 189.5t170.5 78.5zM272 463q-30 0 -55 -11.5t-41 -29t-27 -39.5t-15.5 -41.5t-4.5 -35.5h278 q0 68 -35.5 112.5t-99.5 44.5z" />
<glyph unicode="f" horiz-adv-x="326" d="M237 696l89 -7v-64q-39 8 -64 8q-48 0 -66 -25t-18 -79v-20h118v-62h-118v-447h-78v447h-90v62h90v17q0 87 36.5 128.5t100.5 41.5z" />
<glyph unicode="g" d="M248 523q49 0 82.5 -18.5t65.5 -55.5v60h78v-530q0 -82 -61 -145.5t-153 -63.5q-84 0 -134 44t-64 109h66q11 -37 44 -62t79 -25q69 0 110.5 45t41.5 109v101h-3q-47 -101 -158 -101q-93 0 -148 76t-55 190q0 111 55 189t154 78zM256 461q-54 0 -93.5 -50.5t-39.5 -146.5 q0 -53 10 -96.5t41 -77.5t79 -34q57 0 100 45.5t43 123.5v89q0 75 -44.5 111t-95.5 36z" />
<glyph unicode="h" d="M69 686h79v-270h2q52 107 158 107q68 0 115 -46.5t47 -129.5v-347h-78v333q0 64 -28.5 95t-73.5 31q-50 0 -96 -46t-46 -129v-284h-79v686z" />
<glyph unicode="i" horiz-adv-x="240" d="M77 686h86v-88h-86v88zM81 509h78v-509h-78v509z" />
<glyph unicode="j" horiz-adv-x="230" d="M72 686h86v-88h-86v88zM76 509h78v-588q0 -78 -39.5 -114.5t-106.5 -36.5q-21 0 -39.5 2.5t-26.5 5.5l-8 2v63q33 -8 57 -8q47 0 66 21.5t19 76.5v576z" />
<glyph unicode="k" horiz-adv-x="500" d="M73 686h78v-440l237 263h84l-159 -181l179 -328h-84l-147 283l-110 -126v-157h-78v686z" />
<glyph unicode="l" horiz-adv-x="240" d="M81 686h78v-686h-78v686z" />
<glyph unicode="m" horiz-adv-x="822" d="M69 509h71v-98h3q17 43 57 77.5t95 34.5q59 0 101 -42q28 -28 42 -79q19 48 61.5 84.5t102.5 36.5t107 -47q45 -45 45 -132v-344h-78v332q0 65 -36 101q-25 25 -63 25q-45 0 -85.5 -41.5t-40.5 -108.5v-308h-78v330q0 66 -34 100q-28 28 -68 28q-43 0 -83 -39.5 t-40 -112.5v-306h-79v509z" />
<glyph unicode="n" horiz-adv-x="538" d="M67 470h75q74 53 149 53q101 0 152 -74q27 -42 27 -129v-320h-78v345q0 44 -19 70q-29 40 -83 40q-53 0 -98.5 -31.5t-45.5 -57.5v-366h-79v470z" />
<glyph unicode="o" d="M274 523q108 0 165.5 -79t57.5 -186q0 -111 -61 -189.5t-175 -78.5q-74 0 -125 41t-72.5 100t-21.5 129q0 110 61.5 186.5t170.5 76.5zM269 459q-57 0 -98.5 -47t-41.5 -153q0 -100 37 -151.5t103 -51.5q62 0 102 50t40 153q0 50 -10.5 88t-26 58.5t-36.5 33.5t-37 16.5 t-32 3.5z" />
<glyph unicode="p" d="M77 509h71v-97h2q20 48 59.5 79.5t98.5 31.5q66 0 113 -40t67.5 -98.5t20.5 -126.5q0 -132 -60.5 -200t-141.5 -68q-96 0 -152 89v-299h-78v729zM289 454q-46 0 -83 -35.5t-51 -89.5v-115q0 -59 36.5 -108.5t97.5 -49.5q48 0 84 36q47 47 47 164q0 89 -33.5 143.5 t-97.5 54.5z" />
<glyph unicode="q" d="M258 460q-46 0 -77 -33t-43.5 -77t-12.5 -93q0 -32 5.5 -63.5t19 -63.5t41 -52t66.5 -20q55 0 95.5 47.5t40.5 131.5v56q0 74 -39.5 120.5t-95.5 46.5zM245 523q57 0 92.5 -24t63.5 -72l30 82h41v-533q0 -137 68 -137q29 0 46.5 18t20.5 46h51q-3 -53 -34.5 -93 t-91.5 -40q-73 0 -105.5 54t-32.5 143v130h-3q-17 -46 -56.5 -76.5t-96.5 -30.5q-95 0 -147 76t-52 191q0 48 12 93.5t36 85t65 63.5t93 24z" />
<glyph unicode="r" horiz-adv-x="320" d="M71 509h70v-119h2q47 133 148 133l30 -2v-75q-77 0 -117 -40q-54 -54 -54 -135v-271h-79v509z" />
<glyph unicode="s" horiz-adv-x="520" d="M255 523q88 0 138 -38t63 -91l-72 -15q-12 35 -45.5 57.5t-85.5 22.5q-44 0 -76.5 -18.5t-32.5 -54.5q0 -29 17 -46q18 -18 73.5 -28t114 -23t85.5 -40q44 -44 44 -102q0 -72 -58 -114.5t-155 -42.5q-100 0 -156 46t-66 100l75 15q7 -42 48 -68.5t106 -26.5q56 0 90 21.5 t34 61.5q0 18 -9.5 32.5t-20 22.5t-34 15t-35.5 9t-41 7q-42 7 -71 15t-59.5 24t-46.5 43.5t-16 66.5q0 67 53.5 108t138.5 41z" />
<glyph unicode="t" horiz-adv-x="320" d="M92 638l79 8v-133h113v-62h-113v-313q0 -43 18.5 -63.5t58.5 -20.5l63 5v-63q-61 -6 -77 -6q-142 0 -142 164v297h-90v62h90v125z" />
<glyph unicode="u" d="M69 509h79v-323q0 -64 28 -95.5t71 -31.5q58 0 100.5 46.5t42.5 128.5v275h78v-509h-71v102h-2q-16 -44 -58.5 -78t-97.5 -34q-74 0 -122 48.5t-48 142.5v328z" />
<glyph unicode="v" horiz-adv-x="440" d="M2 509h87l142 -414l138 414h71l-176 -509h-81z" />
<glyph unicode="w" horiz-adv-x="660" d="M7 509h80l110 -379l105 379h57l114 -380l113 380h65l-146 -509h-64l-113 378l-104 -378h-65z" />
<glyph unicode="x" horiz-adv-x="440" d="M22 509h92l108 -174l110 174h77l-148 -228l175 -281h-93l-127 207l-133 -207h-77l171 264z" />
<glyph unicode="y" horiz-adv-x="535" d="M68 509h78v-323q0 -63 28.5 -95t70.5 -32q58 0 101 46.5t43 128.5v275h78v-530q0 -88 -57 -148.5t-145 -60.5q-85 0 -130.5 43t-55.5 110h67q9 -39 36.5 -63t73.5 -24q68 0 104 42t36 112v112h-2q-16 -44 -58.5 -78t-98.5 -34q-73 0 -121 49t-48 142v328z" />
<glyph unicode="z" horiz-adv-x="420" d="M44 509h353v-43l-279 -405h279v-61h-374v61l270 387h-249v61z" />
<glyph unicode="{" horiz-adv-x="300" d="M267 696v-62l-48 -4q-32 -4 -32 -54v-171q0 -93 -73 -143q73 -51 73 -149v-167q0 -50 33 -54l47 -6v-58l-71 3q-30 2 -57 34t-27 78v153q0 39 -4 62t-22 44t-53 29v62q33 6 52 25q27 28 27 114v147q0 49 29 81.5t54 33.5z" />
<glyph unicode="|" horiz-adv-x="257" d="M100 751h59v-1000h-59v1000z" />
<glyph unicode="}" horiz-adv-x="300" d="M33 695q8 0 72 -2q25 -1 54 -33.5t29 -80.5v-148q0 -85 27 -114q18 -18 52 -24v-63q-35 -7 -53 -28.5t-22 -44.5t-4 -62v-153q0 -46 -27 -77.5t-57 -33.5l-71 -3v58l47 6q33 4 33 54v166q0 99 73 149q-73 52 -73 144v171q0 49 -32 53l-48 5v61z" />
<glyph unicode="~" horiz-adv-x="600" d="M541 346q1 -6 1 -13q0 -63 -46 -109q-28 -28 -70 -28q-43 0 -78 20l-129 71q-22 14 -42 14q-51 0 -55 -89h-67q5 67 37 112.5t82 45.5q26 0 67 -22l126 -67q35 -19 57 -19q26 0 37.5 19.5t12.5 64.5h67z" />
<glyph unicode="&#xa1;" horiz-adv-x="300" d="M127 343h43l35 -515h-117zM94 509h104v-107h-104v107z" />
<glyph unicode="&#xa2;" horiz-adv-x="600" d="M279 716h61v-126q66 -9 108.5 -53t51.5 -103l-68 -13q-10 44 -34 74.5t-58 35.5v-354q73 16 92 107l68 -11q-11 -60 -51 -105t-109 -53v-143h-61v143q-86 12 -132.5 77.5t-46.5 152.5q0 111 51.5 172.5t127.5 72.5v126zM279 529q-99 -31 -99 -182q0 -65 25 -111.5 t74 -58.5v352z" />
<glyph unicode="&#xa7;" horiz-adv-x="600" d="M284 696q90 0 142 -40t67 -94l-76 -8q-36 85 -132 85q-43 0 -79.5 -22t-36.5 -65q0 -44 35 -70t85 -39t100 -28t85 -49.5t35 -89.5q0 -73 -81 -138q44 -18 70 -57t26 -84q0 -67 -49 -116q-69 -69 -181 -69q-56 0 -100 14.5t-71 39t-42.5 47t-24.5 47.5l88 13 q15 -39 54.5 -67.5t98.5 -28.5t102 29t43 80q0 36 -27 59.5t-67.5 34t-88 24t-88 27.5t-67.5 46.5t-27 80.5q0 88 97 149q-82 47 -82 135q0 70 55.5 112t136.5 42zM234 382q-78 -41 -78 -97q0 -21 9 -37.5t21 -27t40 -21.5t49 -17t66 -18l23 -6q31 13 51.5 41t20.5 57 q0 19 -8.5 34.5t-20.5 25.5t-35 20t-40.5 15.5t-48.5 15t-49 15.5z" />
<glyph unicode="&#xa8;" horiz-adv-x="400" d="M123 716q21 0 36.5 -15t15.5 -36t-15.5 -35.5t-36.5 -14.5q-22 0 -37 14.5t-15 35.5t15 36t37 15zM277 716q21 0 36 -15t15 -36t-15 -35.5t-36 -14.5q-22 0 -37 14.5t-15 35.5t15 36t37 15z" />
<glyph unicode="&#xa9;" horiz-adv-x="760" d="M381 626q-123 0 -209 -82t-86 -199q0 -120 86 -203t209 -83q124 0 208.5 83.5t84.5 202.5q0 117 -85.5 199t-207.5 82zM381 696q149 0 255.5 -103t106.5 -248q0 -146 -105.5 -250.5t-256.5 -104.5q-152 0 -258 104.5t-106 250.5q0 145 106.5 248t257.5 103zM393 550 q74 0 118.5 -38.5t52.5 -93.5h-67q-6 37 -33 57.5t-68 20.5q-63 0 -97.5 -40t-34.5 -111q0 -68 36 -108.5t98 -40.5q41 0 67 21.5t32 61.5h67q-4 -54 -51.5 -95t-116.5 -41q-86 0 -143 56.5t-57 149.5q0 91 55 146t142 55z" />
<glyph unicode="&#xaa;" horiz-adv-x="361" d="M186 696q72 0 100 -28.5t28 -85.5v-91q0 -29 2.5 -57t5.5 -42l2 -13h-62v44q-31 -48 -111 -48q-51 0 -82.5 26t-31.5 68q0 50 47 81.5t145 31.5h24v23q0 41 -71 41q-70 0 -79 -40l-57 6q5 37 42.5 60.5t97.5 23.5zM217 536q-50 0 -85.5 -16t-35.5 -50q0 -19 18 -32 t49 -13q36 0 63 28t27 62v21h-36z" />
<glyph unicode="&#xab;" horiz-adv-x="399" d="M155 399h45l-53 -141l53 -146h-45l-86 146zM285 399h45l-52 -141l53 -146h-45l-86 146z" />
<glyph unicode="&#xac;" horiz-adv-x="600" d="M41 386h517v-269h-64v204h-453v65z" />
<glyph unicode="&#xae;" horiz-adv-x="760" d="M381 626q-123 0 -209 -82t-86 -199q0 -120 86 -203t209 -83q124 0 208.5 83.5t84.5 202.5q0 117 -85.5 199t-207.5 82zM381 696q149 0 255.5 -103t106.5 -248q0 -146 -105.5 -250.5t-256.5 -104.5q-152 0 -258 104.5t-106 250.5q0 145 106.5 248t257.5 103zM240 547h164 q38 0 63 -11q33 -14 49.5 -42t16.5 -59q0 -44 -20.5 -74t-52.5 -40l77 -174h-62l-74 164h-101v-164h-60v400zM300 494v-133h94q38 0 58.5 19.5t20.5 51.5q0 38 -38 56q-13 6 -40 6h-95z" />
<glyph unicode="&#xaf;" horiz-adv-x="460" d="M73 663h315v-59h-315v59z" />
<glyph unicode="&#xb0;" horiz-adv-x="400" d="M199 636q-37 0 -63.5 -26.5t-26.5 -63.5q0 -38 26.5 -64t63.5 -26t63 26.5t26 63.5t-26 63.5t-63 26.5zM199 696q61 0 105 -44t44 -106t-43.5 -106t-105.5 -44t-106 44t-44 106t44 106t106 44z" />
<glyph unicode="&#xb1;" horiz-adv-x="599" d="M267 633h65v-226h226v-65h-226v-225h-65v225h-226v65h226v226zM41 65h517v-65h-517v65z" />
<glyph unicode="&#xb4;" horiz-adv-x="380" d="M319 716l34 -65l-214 -94l-20 40z" />
<glyph unicode="&#xb6;" d="M507 686v-65h-58v-809h-65v809h-81v-809h-65v403q-93 0 -149 71t-56 157q0 106 69 174.5t156 68.5h249z" />
<glyph unicode="&#xb7;" horiz-adv-x="300" d="M94 346h111v-113h-111v113z" />
<glyph unicode="&#xb8;" horiz-adv-x="320" d="M129 0h34l-10 -35q43 0 71.5 -16t28.5 -50q0 -32 -24.5 -52.5t-70.5 -20.5q-27 0 -49.5 5.5t-31.5 10.5l-9 6l11 32q31 -18 71 -18q23 0 37.5 10t14.5 25q0 36 -58 36l-37 -3z" />
<glyph unicode="&#xba;" horiz-adv-x="360" d="M181 696q70 0 108.5 -46.5t38.5 -112.5q0 -69 -38 -115.5t-110 -46.5q-71 0 -109 46.5t-38 114.5t40.5 114t107.5 46zM180 641q-40 0 -63 -30.5t-23 -74.5t22 -74.5t65 -30.5t64.5 31t21.5 74q0 41 -22.5 73t-64.5 32z" />
<glyph unicode="&#xbb;" horiz-adv-x="400" d="M201 400h45l85 -142l-86 -146h-45l53 146zM70 400h45l85 -142l-86 -146h-45l53 146z" />
<glyph unicode="&#xbf;" d="M237 509h103v-98h-103v98zM257 343h71v-55q0 -55 -14.5 -83t-50.5 -48l-52 -30q-76 -43 -76 -116q0 -54 39.5 -88t101.5 -34q54 0 97 33.5t57 113.5l75 -17q-14 -90 -73.5 -145.5t-160.5 -55.5q-96 0 -160 52t-64 140q0 113 114 174l41 22q34 19 44.5 35t10.5 50v52z" />
<glyph unicode="&#xc0;" horiz-adv-x="560" d="M229 686h99l223 -686h-88l-69 200h-253l-62 -200h-72zM164 265h211l-105 329zM133 892l200 -119l-20 -40l-214 94z" />
<glyph unicode="&#xc1;" horiz-adv-x="560" d="M229 686h99l223 -686h-88l-69 200h-253l-62 -200h-72zM164 265h211l-105 329zM423 894l34 -65l-214 -94l-20 40z" />
<glyph unicode="&#xc2;" horiz-adv-x="560" d="M229 686h99l223 -686h-88l-69 200h-253l-62 -200h-72zM164 265h211l-105 329zM285 893l162 -122l-68 -10l-94 62l-98 -62l-72 10z" />
<glyph unicode="&#xc3;" horiz-adv-x="560" d="M229 686h99l223 -686h-88l-69 200h-253l-62 -200h-72zM164 265h211l-105 329zM212 858q29 0 80 -21.5t68 -21.5q25 0 61 25l36 -39q-46 -46 -102 -46q-31 0 -76 23t-73 23q-32 0 -63 -31l-43 31q48 57 112 57z" />
<glyph unicode="&#xc4;" horiz-adv-x="560" d="M229 686h99l223 -686h-88l-69 200h-253l-62 -200h-72zM164 265h211l-105 329zM203 873q21 0 36.5 -15t15.5 -36t-15.5 -35.5t-36.5 -14.5q-22 0 -37 14.5t-15 35.5t15 36t37 15zM357 873q21 0 36 -15t15 -36t-15 -35.5t-36 -14.5q-22 0 -37 14.5t-15 35.5t15 36t37 15z " />
<glyph unicode="&#xc5;" horiz-adv-x="560" d="M229 686h99l223 -686h-88l-69 200h-253l-62 -200h-72zM164 265h211l-105 329zM278 869q-19 0 -32.5 -14t-13.5 -33t13.5 -32.5t32.5 -13.5t32.5 13.5t13.5 32.5q0 20 -13.5 33.5t-32.5 13.5zM278 912q38 0 64 -26t26 -64q0 -37 -26.5 -63.5t-63.5 -26.5t-63.5 26.5 t-26.5 63.5t26.5 63.5t63.5 26.5z" />
<glyph unicode="&#xc6;" horiz-adv-x="960" d="M419 686h490v-74h-372v-218h301v-69h-301v-251h385v-74h-471v212h-231l-126 -212h-83zM451 607l-194 -328h194v328z" />
<glyph unicode="&#xc7;" horiz-adv-x="620" d="M328 696q101 0 163.5 -61t83.5 -158l-81 -15q-5 20 -10 34.5t-19 41t-30.5 43t-45.5 30t-64 13.5q-65 0 -109 -42.5t-62 -103.5t-18 -134q0 -132 52.5 -207t132.5 -75q134 0 176 169l78 -17q-22 -100 -84 -162t-169 -62q-133 0 -206.5 105t-73.5 256q0 149 75 247t211 98 zM288 1h34l-10 -35q43 0 71.5 -16t28.5 -50q0 -32 -24.5 -52.5t-70.5 -20.5q-27 0 -49.5 5.5t-31.5 11.5l-9 5l11 32q31 -18 71 -18q23 0 37.5 10t14.5 25q0 36 -58 36l-37 -3z" />
<glyph unicode="&#xc8;" horiz-adv-x="560" d="M85 686h434v-74h-348v-218h276v-69h-276v-250h358v-75h-444v686zM174 894l200 -119l-20 -40l-214 94z" />
<glyph unicode="&#xc9;" horiz-adv-x="560" d="M85 686h434v-74h-348v-218h276v-69h-276v-250h358v-75h-444v686zM450 895l34 -65l-214 -94l-20 40z" />
<glyph unicode="&#xca;" horiz-adv-x="560" d="M85 686h434v-74h-348v-218h276v-69h-276v-250h358v-75h-444v686zM305 893l162 -122l-68 -10l-94 62l-98 -62l-72 10z" />
<glyph unicode="&#xcb;" horiz-adv-x="560" d="M85 686h434v-74h-348v-218h276v-69h-276v-250h358v-75h-444v686zM224 873q21 0 36.5 -15t15.5 -36t-15.5 -35.5t-36.5 -14.5q-22 0 -37 14.5t-15 35.5t15 36t37 15zM378 873q21 0 36 -15t15 -36t-15 -35.5t-36 -14.5q-22 0 -37 14.5t-15 35.5t15 36t37 15z" />
<glyph unicode="&#xcc;" horiz-adv-x="260" d="M87 686h86v-686h-86v686zM3 894l200 -119l-20 -40l-214 94z" />
<glyph unicode="&#xcd;" horiz-adv-x="260" d="M87 686h86v-686h-86v686zM280 895l34 -65l-214 -94l-20 40z" />
<glyph unicode="&#xce;" horiz-adv-x="260" d="M87 686h86v-686h-86v686zM115 893l162 -122l-68 -10l-94 62l-98 -62l-72 10z" />
<glyph unicode="&#xcf;" horiz-adv-x="260" d="M87 686h86v-686h-86v686zM44 873q21 0 36.5 -15t15.5 -36t-15.5 -35.5t-36.5 -14.5q-22 0 -37 14.5t-15 35.5t15 36t37 15zM198 873q21 0 36 -15t15 -36t-15 -35.5t-36 -14.5q-22 0 -37 14.5t-15 35.5t15 36t37 15z" />
<glyph unicode="&#xd1;" horiz-adv-x="660" d="M77 686h108l326 -558v558h72v-686h-84l-350 598v-598h-72v686zM263 861q29 0 80 -21.5t68 -21.5q25 0 61 25l36 -39q-46 -46 -102 -46q-30 0 -76 23t-73 23q-32 0 -63 -31l-43 31q48 57 112 57z" />
<glyph unicode="&#xd2;" horiz-adv-x="660" d="M331 696q128 0 204.5 -99.5t76.5 -244.5q0 -68 -17 -130.5t-50 -115.5t-88.5 -84.5t-126.5 -31.5q-134 0 -208 101t-74 247q0 154 77 256t206 102zM333 624q-92 0 -143.5 -78.5t-51.5 -207.5q0 -116 50 -197t143 -81q91 0 141 81t50 208t-53 201t-136 74zM174 893 l200 -119l-20 -40l-214 94z" />
<glyph unicode="&#xd3;" horiz-adv-x="660" d="M331 696q128 0 204.5 -99.5t76.5 -244.5q0 -68 -17 -130.5t-50 -115.5t-88.5 -84.5t-126.5 -31.5q-134 0 -208 101t-74 247q0 154 77 256t206 102zM333 624q-92 0 -143.5 -78.5t-51.5 -207.5q0 -116 50 -197t143 -81q91 0 141 81t50 208t-53 201t-136 74zM470 893l34 -65 l-214 -94l-20 40z" />
<glyph unicode="&#xd4;" horiz-adv-x="660" d="M331 696q128 0 204.5 -99.5t76.5 -244.5q0 -68 -17 -130.5t-50 -115.5t-88.5 -84.5t-126.5 -31.5q-134 0 -208 101t-74 247q0 154 77 256t206 102zM333 624q-92 0 -143.5 -78.5t-51.5 -207.5q0 -116 50 -197t143 -81q91 0 141 81t50 208t-53 201t-136 74zM334 893 l162 -122l-68 -10l-94 62l-98 -62l-72 10z" />
<glyph unicode="&#xd5;" horiz-adv-x="660" d="M331 696q128 0 204.5 -99.5t76.5 -244.5q0 -68 -17 -130.5t-50 -115.5t-88.5 -84.5t-126.5 -31.5q-134 0 -208 101t-74 247q0 154 77 256t206 102zM333 624q-92 0 -143.5 -78.5t-51.5 -207.5q0 -116 50 -197t143 -81q91 0 141 81t50 208t-53 201t-136 74zM263 871 q29 0 80 -21.5t68 -21.5q25 0 61 25l36 -39q-46 -46 -102 -46q-30 0 -76 23t-73 23q-32 0 -63 -31l-43 31q48 57 112 57z" />
<glyph unicode="&#xd6;" horiz-adv-x="660" d="M331 696q128 0 204.5 -99.5t76.5 -244.5q0 -68 -17 -130.5t-50 -115.5t-88.5 -84.5t-126.5 -31.5q-134 0 -208 101t-74 247q0 154 77 256t206 102zM333 624q-92 0 -143.5 -78.5t-51.5 -207.5q0 -116 50 -197t143 -81q91 0 141 81t50 208t-53 201t-136 74zM253 874 q21 0 36.5 -15t15.5 -36t-15.5 -35.5t-36.5 -14.5q-22 0 -37 14.5t-15 35.5t15 36t37 15zM407 874q21 0 36 -15t15 -36t-15 -35.5t-36 -14.5q-22 0 -37 14.5t-15 35.5t15 36t37 15z" />
<glyph unicode="&#xd8;" horiz-adv-x="660" d="M559 728h66l-90 -131q77 -97 77 -245q0 -68 -17 -131t-50 -115.5t-88.5 -84t-126.5 -31.5q-100 0 -172 62l-62 -90h-65l90 130q-73 95 -73 245q0 155 77 257t206 102q93 0 165 -59zM333 624q-92 0 -143.5 -79t-51.5 -207q0 -97 35 -170l278 404q-49 52 -118 52zM331 59 q91 0 141 81.5t50 207.5q0 104 -37 176l-281 -405q50 -60 127 -60z" />
<glyph unicode="&#xd9;" horiz-adv-x="640" d="M85 686h86v-453q0 -88 37 -127t120 -39q156 0 156 162v457h73v-456q0 -117 -64 -178.5t-172 -61.5q-115 0 -175.5 59.5t-60.5 178.5v458zM213 893l200 -119l-20 -40l-214 94z" />
<glyph unicode="&#xda;" horiz-adv-x="640" d="M85 686h86v-453q0 -88 37 -127t120 -39q156 0 156 162v457h73v-456q0 -117 -64 -178.5t-172 -61.5q-115 0 -175.5 59.5t-60.5 178.5v458zM488 893l34 -65l-214 -94l-20 40z" />
<glyph unicode="&#xdb;" horiz-adv-x="640" d="M85 686h86v-453q0 -88 37 -127t120 -39q156 0 156 162v457h73v-456q0 -117 -64 -178.5t-172 -61.5q-115 0 -175.5 59.5t-60.5 178.5v458zM326 893l162 -122l-68 -10l-94 62l-98 -62l-72 10z" />
<glyph unicode="&#xdc;" horiz-adv-x="640" d="M85 686h86v-453q0 -88 37 -127t120 -39q156 0 156 162v457h73v-456q0 -117 -64 -178.5t-172 -61.5q-115 0 -175.5 59.5t-60.5 178.5v458zM244 873q21 0 36.5 -15t15.5 -36t-15.5 -35.5t-36.5 -14.5q-22 0 -37 14.5t-15 35.5t15 36t37 15zM398 873q21 0 36 -15t15 -36 t-15 -35.5t-36 -14.5q-22 0 -37 14.5t-15 35.5t15 36t37 15z" />
<glyph unicode="&#xdf;" horiz-adv-x="580" d="M288 696q75 0 131.5 -41t56.5 -101q0 -57 -52 -96.5t-148 -39.5q-21 0 -21 -8q0 -13 43.5 -28.5t105.5 -42t96 -59.5q41 -41 41 -107q0 -73 -58.5 -128t-155.5 -55q-24 0 -52 4t-44 8l-16 4l22 54q39 -10 78 -10q70 0 105 37.5t35 75.5q0 37 -29 67q-18 18 -112 57 t-115 60q-20 20 -20 45q0 15 10 37q7 16 14 21.5t23 6.5q41 3 76 13t61.5 33t26.5 55q0 29 -26 52.5t-76 23.5q-67 0 -105.5 -43t-38.5 -135v-487h-80v420h-53v60h53q0 101 57.5 174t166.5 73z" />
<glyph unicode="&#xe0;" d="M272 523q41 0 72.5 -6.5t62 -24.5t47 -55.5t16.5 -93.5v-222q0 -43 3 -73t5 -39l3 -9h-79l-8 96q-49 -106 -178 -106q-84 0 -130.5 44.5t-46.5 110.5q0 45 25.5 83t69.5 58q67 29 172 29h88v30q0 39 -12.5 64t-35 35.5t-40 13.5t-41.5 3q-119 0 -139 -90l-74 12 q6 40 29 69t56.5 43.5t66.5 21t68 6.5zM331 256q-208 0 -208 -115q0 -39 28.5 -64t81.5 -25q70 0 115.5 50.5t45.5 121.5v32h-63zM183 718l200 -119l-20 -40l-214 94z" />
<glyph unicode="&#xe1;" d="M272 523q41 0 72.5 -6.5t62 -24.5t47 -55.5t16.5 -93.5v-222q0 -43 3 -73t5 -39l3 -9h-79l-8 96q-49 -106 -178 -106q-84 0 -130.5 44.5t-46.5 110.5q0 45 25.5 83t69.5 58q67 29 172 29h88v30q0 39 -12.5 64t-35 35.5t-40 13.5t-41.5 3q-119 0 -139 -90l-74 12 q6 40 29 69t56.5 43.5t66.5 21t68 6.5zM331 256q-208 0 -208 -115q0 -39 28.5 -64t81.5 -25q70 0 115.5 50.5t45.5 121.5v32h-63zM416 717l34 -65l-214 -94l-20 40z" />
<glyph unicode="&#xe2;" d="M272 523q41 0 72.5 -6.5t62 -24.5t47 -55.5t16.5 -93.5v-222q0 -43 3 -73t5 -39l3 -9h-79l-8 96q-49 -106 -178 -106q-84 0 -130.5 44.5t-46.5 110.5q0 45 25.5 83t69.5 58q67 29 172 29h88v30q0 39 -12.5 64t-35 35.5t-40 13.5t-41.5 3q-119 0 -139 -90l-74 12 q6 40 29 69t56.5 43.5t66.5 21t68 6.5zM331 256q-208 0 -208 -115q0 -39 28.5 -64t81.5 -25q70 0 115.5 50.5t45.5 121.5v32h-63zM267 717l162 -122l-68 -10l-94 62l-98 -62l-72 10z" />
<glyph unicode="&#xe3;" d="M272 523q41 0 72.5 -6.5t62 -24.5t47 -55.5t16.5 -93.5v-222q0 -43 3 -73t5 -39l3 -9h-79l-8 96q-49 -106 -178 -106q-84 0 -130.5 44.5t-46.5 110.5q0 45 25.5 83t69.5 58q67 29 172 29h88v30q0 39 -12.5 64t-35 35.5t-40 13.5t-41.5 3q-119 0 -139 -90l-74 12 q6 40 29 69t56.5 43.5t66.5 21t68 6.5zM331 256q-208 0 -208 -115q0 -39 28.5 -64t81.5 -25q70 0 115.5 50.5t45.5 121.5v32h-63zM194 692q29 0 80 -21.5t68 -21.5q25 0 61 25l36 -39q-46 -46 -102 -46q-31 0 -76 23t-73 23q-32 0 -63 -31l-43 31q48 57 112 57z" />
<glyph unicode="&#xe4;" d="M272 523q41 0 72.5 -6.5t62 -24.5t47 -55.5t16.5 -93.5v-222q0 -43 3 -73t5 -39l3 -9h-79l-8 96q-49 -106 -178 -106q-84 0 -130.5 44.5t-46.5 110.5q0 45 25.5 83t69.5 58q67 29 172 29h88v30q0 39 -12.5 64t-35 35.5t-40 13.5t-41.5 3q-119 0 -139 -90l-74 12 q6 40 29 69t56.5 43.5t66.5 21t68 6.5zM331 256q-208 0 -208 -115q0 -39 28.5 -64t81.5 -25q70 0 115.5 50.5t45.5 121.5v32h-63zM193 717q21 0 36.5 -15t15.5 -36t-15.5 -35.5t-36.5 -14.5q-22 0 -37 14.5t-15 35.5t15 36t37 15zM347 717q21 0 36 -15t15 -36t-15 -35.5 t-36 -14.5q-22 0 -37 14.5t-15 35.5t15 36t37 15z" />
<glyph unicode="&#xe5;" d="M272 523q41 0 72.5 -6.5t62 -24.5t47 -55.5t16.5 -93.5v-222q0 -43 3 -73t5 -39l3 -9h-79l-8 96q-49 -106 -178 -106q-84 0 -130.5 44.5t-46.5 110.5q0 45 25.5 83t69.5 58q67 29 172 29h88v30q0 39 -12.5 64t-35 35.5t-40 13.5t-41.5 3q-119 0 -139 -90l-74 12 q6 40 29 69t56.5 43.5t66.5 21t68 6.5zM331 256q-208 0 -208 -115q0 -39 28.5 -64t81.5 -25q70 0 115.5 50.5t45.5 121.5v32h-63zM289 702q-19 0 -32.5 -14t-13.5 -33t13.5 -32.5t32.5 -13.5t32.5 13.5t13.5 32.5q0 20 -13.5 33.5t-32.5 13.5zM289 745q37 0 63.5 -26.5 t26.5 -63.5t-26.5 -63.5t-63.5 -26.5t-63.5 26.5t-26.5 63.5t26.5 63.5t63.5 26.5z" />
<glyph unicode="&#xe6;" horiz-adv-x="900" d="M291 523q66 0 104 -17.5t69 -54.5q65 72 163 72q104 0 162.5 -74.5t58.5 -200.5h-367q0 -89 39 -140.5t113 -51.5q95 0 135 97l72 -14q-19 -59 -73 -104t-140 -45q-74 0 -126.5 37.5t-77.5 91.5q-23 -61 -72 -95t-118 -34q-75 0 -126 40t-51 111q0 30 10.5 56.5 t36.5 54.5t81.5 44.5t135.5 16.5h85v38q0 112 -128 112q-46 0 -82 -22t-47 -66l-74 13q16 68 75.5 101.5t141.5 33.5zM320 254q-83 0 -120 -20q-60 -35 -60 -89q0 -36 26.5 -64t73.5 -28q63 0 113 46.5t50 125.5v29h-83zM484 306h278q-3 71 -38 113t-96 42 q-55 0 -95.5 -38.5t-48.5 -116.5z" />
<glyph unicode="&#xe7;" horiz-adv-x="480" d="M251 523q84 0 134 -50t61 -126l-72 -13q-7 57 -39 90.5t-82 33.5q-69 0 -102.5 -58t-33.5 -138q0 -85 31.5 -144.5t98.5 -59.5q104 0 127 124l72 -13q-2 -15 -7.5 -33.5t-19.5 -45.5t-34.5 -48t-55.5 -36.5t-79 -15.5q-102 0 -158.5 75t-56.5 192q0 114 58 190t158 76z M228 1h34l-10 -35q43 0 71.5 -16t28.5 -50q0 -32 -24.5 -52.5t-70.5 -20.5q-27 0 -49.5 5.5t-31.5 11.5l-9 5l11 32q31 -18 71 -18q23 0 37.5 10t14.5 25q0 36 -58 36l-37 -3z" />
<glyph unicode="&#xe8;" d="M271 523q109 0 165.5 -75t56.5 -181v-19h-369q0 -86 31 -131q45 -61 121 -61q98 0 135 98l74 -15q-18 -59 -75.5 -104t-140.5 -45q-108 0 -170 74.5t-62 190.5q0 111 63.5 189.5t170.5 78.5zM272 463q-30 0 -55 -11.5t-41 -29t-27 -39.5t-15.5 -41.5t-4.5 -35.5h278 q0 68 -35.5 112.5t-99.5 44.5zM163 719l200 -119l-20 -40l-214 94z" />
<glyph unicode="&#xe9;" d="M271 523q109 0 165.5 -75t56.5 -181v-19h-369q0 -86 31 -131q45 -61 121 -61q98 0 135 98l74 -15q-18 -59 -75.5 -104t-140.5 -45q-108 0 -170 74.5t-62 190.5q0 111 63.5 189.5t170.5 78.5zM272 463q-30 0 -55 -11.5t-41 -29t-27 -39.5t-15.5 -41.5t-4.5 -35.5h278 q0 68 -35.5 112.5t-99.5 44.5zM399 720l34 -65l-214 -94l-20 40z" />
<glyph unicode="&#xea;" d="M271 523q109 0 165.5 -75t56.5 -181v-19h-369q0 -86 31 -131q45 -61 121 -61q98 0 135 98l74 -15q-18 -59 -75.5 -104t-140.5 -45q-108 0 -170 74.5t-62 190.5q0 111 63.5 189.5t170.5 78.5zM272 463q-30 0 -55 -11.5t-41 -29t-27 -39.5t-15.5 -41.5t-4.5 -35.5h278 q0 68 -35.5 112.5t-99.5 44.5zM274 717l162 -122l-68 -10l-94 62l-98 -62l-72 10z" />
<glyph unicode="&#xeb;" d="M271 523q109 0 165.5 -75t56.5 -181v-19h-369q0 -86 31 -131q45 -61 121 -61q98 0 135 98l74 -15q-18 -59 -75.5 -104t-140.5 -45q-108 0 -170 74.5t-62 190.5q0 111 63.5 189.5t170.5 78.5zM272 463q-30 0 -55 -11.5t-41 -29t-27 -39.5t-15.5 -41.5t-4.5 -35.5h278 q0 68 -35.5 112.5t-99.5 44.5zM193 716q21 0 36.5 -15t15.5 -36t-15.5 -35.5t-36.5 -14.5q-22 0 -37 14.5t-15 35.5t15 36t37 15zM347 716q21 0 36 -15t15 -36t-15 -35.5t-36 -14.5q-22 0 -37 14.5t-15 35.5t15 36t37 15z" />
<glyph unicode="&#xec;" horiz-adv-x="240" d="M81 509h78v-509h-78v509zM-28 716l200 -119l-20 -40l-214 94z" />
<glyph unicode="&#xed;" horiz-adv-x="240" d="M81 509h78v-509h-78v509zM270 716l34 -65l-214 -94l-20 40z" />
<glyph unicode="&#xee;" horiz-adv-x="240" d="M81 509h78v-509h-78v509zM115 714l162 -122l-68 -10l-94 62l-98 -62l-72 10z" />
<glyph unicode="&#xef;" horiz-adv-x="240" d="M81 509h78v-509h-78v509zM43 716q21 0 36.5 -15t15.5 -36t-15.5 -35.5t-36.5 -14.5q-22 0 -37 14.5t-15 35.5t15 36t37 15zM197 716q21 0 36 -15t15 -36t-15 -35.5t-36 -14.5q-22 0 -37 14.5t-15 35.5t15 36t37 15z" />
<glyph unicode="&#xf0;" horiz-adv-x="541" d="M171 583l76 33q-33 31 -86 70h72q41 -25 66 -47l91 41v-38l-63 -28q69 -64 116 -148.5t53 -180.5q0 -5 0.5 -14t0.5 -13q0 -111 -61 -189.5t-175 -78.5q-74 0 -125 41t-72.5 100t-21.5 129q0 110 61.5 186.5t170.5 76.5q31 0 60 -8q-30 44 -61 75l-102 -45v38zM269 459 q-57 0 -98.5 -47t-41.5 -153q0 -100 37 -151.5t103 -51.5q62 0 102 50t40 153q0 5 -0.5 15t-0.5 15q-4 52 -20 88.5t-39.5 53t-43 22.5t-38.5 6z" />
<glyph unicode="&#xf1;" horiz-adv-x="538" d="M69 470h75q74 53 149 53q101 0 152 -74q27 -42 27 -129v-320h-78v345q0 44 -19 70q-29 40 -83 40q-53 0 -98.5 -31.5t-45.5 -57.5v-366h-79v470zM203 690q29 0 80 -21.5t68 -21.5q25 0 61 25l36 -39q-46 -46 -102 -46q-30 0 -76 23t-73 23q-32 0 -63 -31l-43 31 q48 57 112 57z" />
<glyph unicode="&#xf2;" d="M274 523q108 0 165.5 -79t57.5 -186q0 -111 -61 -189.5t-175 -78.5q-74 0 -125 41t-72.5 100t-21.5 129q0 110 61.5 186.5t170.5 76.5zM269 459q-57 0 -98.5 -47t-41.5 -153q0 -100 37 -151.5t103 -51.5q62 0 102 50t40 153q0 50 -10.5 88t-26 58.5t-36.5 33.5t-37 16.5 t-32 3.5zM164 716l200 -119l-20 -40l-214 94z" />
<glyph unicode="&#xf3;" d="M274 523q108 0 165.5 -79t57.5 -186q0 -111 -61 -189.5t-175 -78.5q-74 0 -125 41t-72.5 100t-21.5 129q0 110 61.5 186.5t170.5 76.5zM269 459q-57 0 -98.5 -47t-41.5 -153q0 -100 37 -151.5t103 -51.5q62 0 102 50t40 153q0 50 -10.5 88t-26 58.5t-36.5 33.5t-37 16.5 t-32 3.5zM400 716l34 -65l-214 -94l-20 40z" />
<glyph unicode="&#xf4;" d="M274 523q108 0 165.5 -79t57.5 -186q0 -111 -61 -189.5t-175 -78.5q-74 0 -125 41t-72.5 100t-21.5 129q0 110 61.5 186.5t170.5 76.5zM269 459q-57 0 -98.5 -47t-41.5 -153q0 -100 37 -151.5t103 -51.5q62 0 102 50t40 153q0 50 -10.5 88t-26 58.5t-36.5 33.5t-37 16.5 t-32 3.5zM286 716l162 -122l-68 -10l-94 62l-98 -62l-72 10z" />
<glyph unicode="&#xf5;" d="M274 523q108 0 165.5 -79t57.5 -186q0 -111 -61 -189.5t-175 -78.5q-74 0 -125 41t-72.5 100t-21.5 129q0 110 61.5 186.5t170.5 76.5zM269 459q-57 0 -98.5 -47t-41.5 -153q0 -100 37 -151.5t103 -51.5q62 0 102 50t40 153q0 50 -10.5 88t-26 58.5t-36.5 33.5t-37 16.5 t-32 3.5zM204 692q29 0 80 -21.5t68 -21.5q25 0 61 25l36 -39q-46 -46 -102 -46q-31 0 -76 23t-73 23q-32 0 -63 -31l-43 31q48 57 112 57z" />
<glyph unicode="&#xf6;" d="M274 523q108 0 165.5 -79t57.5 -186q0 -111 -61 -189.5t-175 -78.5q-74 0 -125 41t-72.5 100t-21.5 129q0 110 61.5 186.5t170.5 76.5zM269 459q-57 0 -98.5 -47t-41.5 -153q0 -100 37 -151.5t103 -51.5q62 0 102 50t40 153q0 50 -10.5 88t-26 58.5t-36.5 33.5t-37 16.5 t-32 3.5zM194 716q21 0 36.5 -15t15.5 -36t-15.5 -35.5t-36.5 -14.5q-22 0 -37 14.5t-15 35.5t15 36t37 15zM348 716q21 0 36 -15t15 -36t-15 -35.5t-36 -14.5q-22 0 -37 14.5t-15 35.5t15 36t37 15z" />
<glyph unicode="&#xf7;" horiz-adv-x="600" d="M252 534h97v-97h-97v97zM252 144h97v-97h-97v97zM42 323h517v-65h-517v65z" />
<glyph unicode="&#xf9;" d="M69 509h79v-323q0 -64 28 -95.5t71 -31.5q58 0 100.5 46.5t42.5 128.5v275h78v-509h-71v102h-2q-16 -44 -58.5 -78t-97.5 -34q-74 0 -122 48.5t-48 142.5v328zM115 716l200 -119l-20 -40l-214 94z" />
<glyph unicode="&#xfa;" d="M69 509h79v-323q0 -64 28 -95.5t71 -31.5q58 0 100.5 46.5t42.5 128.5v275h78v-509h-71v102h-2q-16 -44 -58.5 -78t-97.5 -34q-74 0 -122 48.5t-48 142.5v328zM440 716l34 -65l-214 -94l-20 40z" />
<glyph unicode="&#xfb;" d="M69 509h79v-323q0 -64 28 -95.5t71 -31.5q58 0 100.5 46.5t42.5 128.5v275h78v-509h-71v102h-2q-16 -44 -58.5 -78t-97.5 -34q-74 0 -122 48.5t-48 142.5v328zM275 716l162 -122l-68 -10l-94 62l-98 -62l-72 10z" />
<glyph unicode="&#xfc;" d="M69 509h79v-323q0 -64 28 -95.5t71 -31.5q58 0 100.5 46.5t42.5 128.5v275h78v-509h-71v102h-2q-16 -44 -58.5 -78t-97.5 -34q-74 0 -122 48.5t-48 142.5v328zM192 716q21 0 36.5 -15t15.5 -36t-15.5 -35.5t-36.5 -14.5q-22 0 -37 14.5t-15 35.5t15 36t37 15zM346 716 q21 0 36 -15t15 -36t-15 -35.5t-36 -14.5q-22 0 -37 14.5t-15 35.5t15 36t37 15z" />
<glyph unicode="&#xff;" horiz-adv-x="535" d="M69 509h78v-323q0 -63 28.5 -95t70.5 -32q58 0 101 46.5t43 128.5v275h78v-530q0 -88 -57 -148.5t-145 -60.5q-85 0 -130.5 43t-55.5 110h67q9 -39 36.5 -63t73.5 -24q68 0 104 42t36 112v112h-2q-16 -44 -58.5 -78t-98.5 -34q-73 0 -121 49t-48 142v328zM189 716 q21 0 36.5 -15t15.5 -36t-15.5 -35.5t-36.5 -14.5q-22 0 -37 14.5t-15 35.5t15 36t37 15zM343 716q21 0 36 -15t15 -36t-15 -35.5t-36 -14.5q-22 0 -37 14.5t-15 35.5t15 36t37 15z" />
<glyph unicode="&#x103;" d="M99 692h61q16 -54 111 -54q47 0 70 10.5t39 43.5h55q-13 -54 -51 -81.5t-113 -27.5q-76 0 -115.5 24.5t-56.5 84.5zM272 523q41 0 72.5 -6.5t62 -24.5t47 -55.5t16.5 -93.5v-222q0 -43 3 -73t5 -39l3 -9h-79l-8 96q-49 -106 -178 -106q-84 0 -130.5 44.5t-46.5 110.5 q0 45 25.5 83t69.5 58q67 29 172 29h88v30q0 39 -12.5 64t-35 35.5t-40 13.5t-41.5 3q-119 0 -139 -90l-74 12q6 40 29 69t56.5 43.5t66.5 21t68 6.5zM331 256q-208 0 -208 -115q0 -39 28.5 -64t81.5 -25q70 0 115.5 50.5t45.5 121.5v32h-63z" />
<glyph unicode="&#x115;" d="M102 692h61q16 -54 111 -54q47 0 70 10.5t39 43.5h55q-13 -54 -51 -81.5t-113 -27.5q-76 0 -115.5 24.5t-56.5 84.5zM271 523q109 0 165.5 -75t56.5 -181v-19h-369q0 -86 31 -131q45 -61 121 -61q98 0 135 98l74 -15q-18 -59 -75.5 -104t-140.5 -45q-108 0 -170 74.5 t-62 190.5q0 111 63.5 189.5t170.5 78.5zM272 463q-30 0 -55 -11.5t-41 -29t-27 -39.5t-15.5 -41.5t-4.5 -35.5h278q0 68 -35.5 112.5t-99.5 44.5z" />
<glyph unicode="&#x12d;" horiz-adv-x="240" d="M-48 692h61q16 -54 111 -54q47 0 70 10.5t39 43.5h55q-13 -54 -51 -81.5t-113 -27.5q-76 0 -115.5 24.5t-56.5 84.5zM81 509h78v-509h-78v509z" />
<glyph unicode="&#x131;" horiz-adv-x="240" d="M81 509h78v-509h-78v509z" />
<glyph unicode="&#x14b;" horiz-adv-x="538" d="M392 345q0 44 -19 70q-29 40 -83 40q-53 0 -98.5 -31.5t-45.5 -57.5v-366h-79v470h75q74 53 149 53q101 0 152 -74q27 -42 27 -129v-339q0 -78 -39.5 -114.5t-106.5 -36.5q-21 0 -39.5 2.5t-26.5 5.5l-8 2v63q33 -8 57 -8q47 0 66 21.5t19 76.5v352z" />
<glyph unicode="&#x14f;" d="M104 692h61q16 -54 111 -54q47 0 70 10.5t39 43.5h55q-13 -54 -51 -81.5t-113 -27.5q-76 0 -115.5 24.5t-56.5 84.5zM274 523q108 0 165.5 -79t57.5 -186q0 -111 -61 -189.5t-175 -78.5q-74 0 -125 41t-72.5 100t-21.5 129q0 110 61.5 186.5t170.5 76.5zM269 459 q-57 0 -98.5 -47t-41.5 -153q0 -100 37 -151.5t103 -51.5q62 0 102 50t40 153q0 50 -10.5 88t-26 58.5t-36.5 33.5t-37 16.5t-32 3.5z" />
<glyph unicode="&#x153;" horiz-adv-x="880" d="M271 523q105 0 177 -86q75 86 174 86q72 0 122.5 -41t71.5 -98t21 -123v-13h-356v-20q0 -74 40.5 -122t108.5 -48q52 0 83 31t45 68l71 -15q-6 -22 -20 -46t-38 -49t-63 -41t-86 -16q-104 0 -174 87q-73 -87 -181 -87q-100 0 -165 72.5t-65 197.5q0 119 68 191t166 72z M272 456q-68 0 -107.5 -49.5t-39.5 -152.5q0 -108 42 -155q40 -45 98 -45q148 0 148 211q0 81 -35.5 136t-105.5 55zM621 461q-55 0 -93.5 -40t-43.5 -115h268q0 63 -35 109t-96 46z" />
<glyph unicode="&#x16d;" d="M97 692h61q16 -54 111 -54q47 0 70 10.5t39 43.5h55q-13 -54 -51 -81.5t-113 -27.5q-76 0 -115.5 24.5t-56.5 84.5zM69 509h79v-323q0 -64 28 -95.5t71 -31.5q58 0 100.5 46.5t42.5 128.5v275h78v-509h-71v102h-2q-16 -44 -58.5 -78t-97.5 -34q-74 0 -122 48.5t-48 142.5 v328z" />
<glyph unicode="&#x178;" horiz-adv-x="560" d="M7 686h100l182 -316l184 316h78l-229 -397v-289h-86v289zM203 873q21 0 36.5 -15t15.5 -36t-15.5 -35.5t-36.5 -14.5q-22 0 -37 14.5t-15 35.5t15 36t37 15zM357 873q21 0 36 -15t15 -36t-15 -35.5t-36 -14.5q-22 0 -37 14.5t-15 35.5t15 36t37 15z" />
<glyph unicode="&#x192;" horiz-adv-x="600" d="M501 774l45 -3l-12 -62q-17 1 -31 1q-50 0 -75 -27.5t-35 -75.5l-6 -29h123l-9 -59h-124l-89 -504q-14 -80 -65 -122.5t-119 -42.5l-46 2l11 61h19q59 0 85.5 24.5t39.5 101.5l84 480h-93l10 59h94l8 39q8 46 30.5 78.5t51 48.5t54 23t49.5 7z" />
<glyph unicode="&#x252;" d="M77 509h71v-97h2q20 48 59.5 79.5t98.5 31.5q66 0 113 -40t67.5 -98.5t20.5 -126.5q0 -132 -60.5 -200t-141.5 -68q-96 0 -152 89v-79h-78v509zM289 454q-46 0 -83 -35.5t-51 -89.5v-115q0 -59 36.5 -108.5t97.5 -49.5q48 0 84 36q47 47 47 164q0 89 -33.5 143.5 t-97.5 54.5z" />
<glyph unicode="&#x254;" horiz-adv-x="480" d="M238 523q100 0 158 -76t58 -190q0 -117 -56.5 -192t-158.5 -75q-44 0 -79 15.5t-55.5 36.5t-34.5 48t-19.5 45.5t-7.5 33.5l72 13q23 -124 127 -124q67 0 98.5 59.5t31.5 144.5q0 80 -33.5 138t-102.5 58q-50 0 -82 -33.5t-39 -90.5l-72 13q11 76 61 126t134 50z" />
<glyph unicode="&#x25c;" horiz-adv-x="480" d="M58 405q19 53 68 85.5t116 32.5q72 0 120.5 -38t48.5 -100q0 -42 -27 -75t-72 -40v-1q50 -7 84.5 -40.5t34.5 -85.5q0 -62 -51 -107.5t-144 -45.5q-79 0 -129.5 36t-67.5 90l70 26q10 -39 44 -61.5t81 -22.5q61 0 90.5 25.5t29.5 56.5q0 75 -88 97l-8 2v56l8 2 q34 8 53.5 31t19.5 47q0 36 -28.5 59.5t-73.5 23.5q-77 0 -111 -75z" />
<glyph unicode="&#x26a;" horiz-adv-x="280" d="M45 509h188v-88h-55v-333h55v-88h-188v88h55v333h-55v88z" />
<glyph unicode="&#x275;" horiz-adv-x="580" d="M291 696q85 0 140.5 -48.5t78 -123t22.5 -172.5q0 -72 -10.5 -131t-36 -114t-75 -86t-120.5 -31q-68 0 -116.5 28t-75 78t-38.5 109.5t-12 132.5q0 77 13.5 140.5t41.5 113t76 77t112 27.5zM291 60q42 0 70.5 18t44 54.5t23 77.5t11.5 100h-301q3 -57 10 -96.5 t22.5 -77.5t45.5 -57t74 -19zM293 624q-79 0 -111.5 -60t-42.5 -182h302q-8 121 -41.5 181.5t-106.5 60.5z" />
<glyph unicode="&#x283;" horiz-adv-x="230" d="M154 -19q0 -78 -39.5 -114.5t-106.5 -36.5q-21 0 -39.5 2.5t-26.5 5.5l-8 2v63q33 -8 57 -8q47 0 66 21.5t19 76.5v542q0 78 39.5 114.5t106.5 36.5q21 0 39.5 -2.5t26.5 -5.5l8 -2v-63q-33 8 -57 8q-47 0 -66 -21.5t-19 -76.5v-542z" />
<glyph unicode="&#x28a;" d="M261 0q-95 0 -156.5 60.5t-61.5 150.5q0 41 15.5 77t31 62t15.5 44q0 14 -11.5 29t-33.5 19l7 67q42 0 76 -37t34 -87q0 -27 -26.5 -78t-26.5 -90q0 -56 38 -92.5t99 -36.5t99 36.5t38 92.5q0 39 -26.5 90t-26.5 78q0 50 34 87t76 37l7 -67q-22 -4 -33.5 -19t-11.5 -29 q0 -18 15.5 -44t31 -62t15.5 -77q0 -90 -61.5 -150.5t-156.5 -60.5z" />
<glyph unicode="&#x28c;" horiz-adv-x="440" d="M440 0h-87l-142 414l-138 -414h-71l176 509h81z" />
<glyph unicode="&#x292;" horiz-adv-x="600" d="M79 509h452v-52l-216 -242q101 -8 168.5 -63t67.5 -136q0 -82 -67.5 -142.5t-191.5 -60.5q-104 0 -171 48t-90 119l80 27q32 -124 178 -124q93 0 133.5 39.5t40.5 93.5q0 74 -75 112t-195 38l231 268h-354z" />
<glyph unicode="&#x2a4;" horiz-adv-x="974" d="M396 686h78v-177h452v-52l-216 -242q101 -8 168.5 -63t67.5 -136q0 -82 -67.5 -142.5t-191.5 -60.5q-99 0 -158.5 39.5t-86.5 90.5l76 30q45 -90 166 -90q93 0 133.5 39.5t40.5 93.5q0 74 -75 112t-195 38l231 268h-345v-311q0 -22 3 -52.5t5 -50.5l3 -20h-71 q-9 46 -11 91h-3q-18 -40 -57 -70.5t-101 -30.5q-93 0 -148 76t-55 190q0 111 55 189t154 78q87 0 148 -82v245zM256 461q-54 0 -93.5 -50.5t-39.5 -146.5q0 -53 10 -96.5t41 -77.5t79 -34q58 0 100.5 45.5t42.5 107.5v105q0 75 -44.5 111t-95.5 36z" />
<glyph unicode="&#x2a7;" horiz-adv-x="504" d="M362 -19q0 -78 -39.5 -114.5t-106.5 -36.5q-21 0 -39.5 2.5t-26.5 5.5l-8 2v63q33 -8 57 -8q47 0 66 21.5t19 76.5v1q-38 -4 -50 -4q-142 0 -142 164v297h-90v62h90v125l79 8v-133h113v22q0 78 39.5 114.5t106.5 36.5q21 0 39.5 -2.5t26.5 -5.5l8 -2v-63q-33 8 -57 8 q-47 0 -66 -21.5t-19 -76.5v-542zM248 54q10 0 36 2v395h-113v-313q0 -43 18.5 -63.5t58.5 -20.5z" />
<glyph unicode="&#x2c6;" horiz-adv-x="480" d="M245 716l162 -122l-68 -10l-94 62l-98 -62l-72 10z" />
<glyph unicode="&#x2c7;" horiz-adv-x="480" d="M142 716l94 -63l97 63l74 -10l-171 -124l-163 124z" />
<glyph unicode="&#x2d8;" horiz-adv-x="480" d="M73 692h61q16 -54 111 -54q47 0 70 10.5t39 43.5h55q-13 -54 -51 -81.5t-113 -27.5q-76 0 -115.5 24.5t-56.5 84.5z" />
<glyph unicode="&#x2d9;" horiz-adv-x="240" d="M121 716q22 0 37 -14.5t15 -36.5q0 -21 -15 -35.5t-37 -14.5t-37 14.5t-15 35.5q0 22 15 36.5t37 14.5z" />
<glyph unicode="&#x2da;" horiz-adv-x="320" d="M159 682q-19 0 -32.5 -14t-13.5 -33t13.5 -32.5t32.5 -13.5t32.5 13.5t13.5 32.5q0 20 -13.5 33.5t-32.5 13.5zM159 725q37 0 63.5 -26.5t26.5 -63.5t-26.5 -63.5t-63.5 -26.5t-63.5 26.5t-26.5 63.5t26.5 63.5t63.5 26.5z" />
<glyph unicode="&#x2db;" horiz-adv-x="320" d="M112 -11l56 11l2 -2q-38 -19 -38 -52q0 -19 12.5 -29.5t33.5 -10.5q12 0 26 4t22 8l7 3l14 -31q-40 -24 -85 -24q-43 0 -66 17.5t-23 45.5q0 36 39 60z" />
<glyph unicode="&#x2dc;" horiz-adv-x="500" d="M183 691q29 0 80 -21.5t68 -21.5q25 0 61 25l36 -39q-46 -46 -102 -46q-30 0 -76 23t-73 23q-32 0 -63 -31l-43 31q48 57 112 57z" />
<glyph unicode="&#x2dd;" horiz-adv-x="500" d="M223 716l52 -50l-170 -160l-33 31zM373 716l53 -50l-170 -160l-33 31z" />
<glyph unicode="&#x3c0;" horiz-adv-x="1080" d="M132 649v55q230 -77 405 -77q176 0 414 77v-55q-235 -81 -411 -81t-408 81zM815 523q108 0 165.5 -79t57.5 -186q0 -111 -61 -189.5t-175 -78.5q-74 0 -125 41t-72.5 100t-21.5 129q0 110 61.5 186.5t170.5 76.5zM810 459q-57 0 -98.5 -47t-41.5 -153q0 -100 37 -151.5 t103 -51.5q62 0 102 50t40 153q0 50 -10.5 88t-26 58.5t-36.5 33.5t-37 16.5t-32 3.5zM274 523q108 0 165.5 -79t57.5 -186q0 -111 -61 -189.5t-175 -78.5q-74 0 -125 41t-72.5 100t-21.5 129q0 110 61.5 186.5t170.5 76.5zM269 459q-57 0 -98.5 -47t-41.5 -153 q0 -100 37 -151.5t103 -51.5q62 0 102 50t40 153q0 50 -10.5 88t-26 58.5t-36.5 33.5t-37 16.5t-32 3.5z" />
<glyph unicode="&#x2013;" horiz-adv-x="500" d="M0 288h500v-61h-500v61z" />
<glyph unicode="&#x2014;" horiz-adv-x="1000" d="M0 288h1000v-61h-1000v61z" />
<glyph unicode="&#x2018;" horiz-adv-x="299" d="M170 686h36l-50 -119h49v-102h-102v101z" />
<glyph unicode="&#x2019;" horiz-adv-x="299" d="M95 686h103v-101l-68 -120h-36l50 119h-49v102z" />
<glyph unicode="&#x201a;" horiz-adv-x="299" d="M109 100h100v-89l-79 -132h-38l59 121h-42v100z" />
<glyph unicode="&#x201c;" horiz-adv-x="460" d="M179 686h37l-59 -119h40v-100h-99v86zM329 686h37l-59 -119h40v-100h-99v86z" />
<glyph unicode="&#x201d;" horiz-adv-x="460" d="M111 686h100v-86l-80 -132h-37l58 119h-41v99zM263 686h100v-86l-80 -132h-37l58 119h-41v99z" />
<glyph unicode="&#x201e;" horiz-adv-x="460" d="M113 100h100v-89l-79 -132h-38l59 121h-42v100zM265 100h100v-89l-79 -132h-38l59 121h-42v100z" />
<glyph unicode="&#x2020;" horiz-adv-x="600" d="M242 686l61 -12l58 12l-44 -214l213 37l-10 -44l10 -46l-212 25l42 -46q-18 -53 -22 -106q-13 -197 -21 -464h-32q-5 245 -20 464q-3 41 -22 106l42 46l-212 -25l10 46l-10 44l213 -37z" />
<glyph unicode="&#x2021;" horiz-adv-x="600" d="M246 686l54 -17l53 17l-28 -189l203 37l-9 -48l9 -47l-210 30l22 -52l-24 -63l212 36l-9 -46l9 -48l-211 28l45 -37q-19 -65 -27.5 -155t-18.5 -305h-34q-10 219 -18 307t-27 153l44 37l-210 -28l9 48l-10 46l212 -36l-23 63l22 52l-210 -30l9 47l-9 48l203 -37z" />
<glyph unicode="&#x2022;" horiz-adv-x="429" d="M214 464q66 0 112.5 -46t46.5 -109q0 -64 -47.5 -109.5t-111.5 -45.5q-65 0 -111.5 46t-46.5 109q0 65 47.5 110t110.5 45z" />
<glyph unicode="&#x2026;" horiz-adv-x="1000" d="M112 113h111v-113h-111v113zM444 113h111v-113h-111v113zM776 113h111v-113h-111v113z" />
<glyph unicode="&#x2039;" horiz-adv-x="260" d="M151 399h45l-52 -142l53 -145h-45l-86 145z" />
<glyph unicode="&#x203a;" horiz-adv-x="260" d="M64 400h45l86 -143l-86 -145h-45l53 145z" />
<glyph unicode="&#x2044;" horiz-adv-x="160" d="M251 686h73l-415 -686h-73z" />
<glyph unicode="&#x2122;" horiz-adv-x="840" d="M37 686h284v-50h-112v-360h-61v360h-111v50zM388 686h90l119 -328l117 328h90v-410h-61v357h-3l-125 -357h-46l-129 357h-2v-357h-50v410z" />
<glyph unicode="&#x2126;" d="M261 -10q-109 0 -165.5 75t-56.5 181v19h369q0 86 -31 131q-45 61 -121 61q-98 0 -135 -98l-74 15q18 59 75.5 104t140.5 45q108 0 170 -74.5t62 -190.5q0 -111 -63.5 -189.5t-170.5 -78.5zM260 50q30 0 55 11.5t41 29t27 39.5t15.5 41.5t4.5 35.5h-278 q0 -68 35.5 -112.5t99.5 -44.5z" />
<glyph unicode="&#x25fc;" horiz-adv-x="510" d="M0 510h510v-510h-510v510z" />
<glyph unicode="&#xf6c9;" horiz-adv-x="380" d="M314 727l45 -87l-214 -94l-31 62z" />
</font>
</defs>
</svg>
